<svg xmlns="http://www.w3.org/2000/svg" width="800" height="440" viewBox="0 0 800 440" font-family="Segoe UI, Ubuntu, Helvetica, Arial, sans-serif"><rect width="800" height="440" rx="6" fill="#fffefe"/><text x="24" y="36" fill="#2f80ed" font-size="18" font-weight="600" text-anchor="start">Toolbox · share of calls, last 51 days</text><text x="24" y="72" fill="#2f80ed" font-size="14" font-weight="600" text-anchor="start">MCP servers</text><text x="24" y="96" fill="#434d58" font-size="12" font-weight="400" text-anchor="start">github</text><rect x="184" y="87" width="150.0" height="10" rx="3" fill="#4c71f2"/><text x="388" y="96" fill="#434d58" font-size="12" font-weight="400" text-anchor="end">41%</text><text x="24" y="118" fill="#434d58" font-size="12" font-weight="400" text-anchor="start">google-chat</text><rect x="184" y="109" width="86.8" height="10" rx="3" fill="#4c71f2"/><text x="388" y="118" fill="#434d58" font-size="12" font-weight="400" text-anchor="end">24%</text><text x="24" y="140" fill="#434d58" font-size="12" font-weight="400" text-anchor="start">grafana</text><rect x="184" y="131" width="39.2" height="10" rx="3" fill="#4c71f2"/><text x="388" y="140" fill="#434d58" font-size="12" font-weight="400" text-anchor="end">11%</text><text x="24" y="162" fill="#434d58" font-size="12" font-weight="400" text-anchor="start">opensearch</text><rect x="184" y="153" width="31.9" height="10" rx="3" fill="#4c71f2"/><text x="388" y="162" fill="#434d58" font-size="12" font-weight="400" text-anchor="end">9%</text><text x="24" y="184" fill="#434d58" font-size="12" font-weight="400" text-anchor="start">gmail</text><rect x="184" y="175" width="28.4" height="10" rx="3" fill="#4c71f2"/><text x="388" y="184" fill="#434d58" font-size="12" font-weight="400" text-anchor="end">8%</text><text x="24" y="206" fill="#434d58" font-size="12" font-weight="400" text-anchor="start">google-docs</text><rect x="184" y="197" width="15.2" height="10" rx="3" fill="#4c71f2"/><text x="388" y="206" fill="#434d58" font-size="12" font-weight="400" text-anchor="end">4%</text><text x="24" y="228" fill="#434d58" font-size="12" font-weight="400" text-anchor="start">other</text><rect x="184" y="219" width="11.8" height="10" rx="3" fill="#4c71f2"/><text x="388" y="228" fill="#434d58" font-size="12" font-weight="400" text-anchor="end">3%</text><text x="412" y="72" fill="#2f80ed" font-size="14" font-weight="600" text-anchor="start">Skills</text><text x="412" y="96" fill="#434d58" font-size="12" font-weight="400" text-anchor="start">brainstorming</text><rect x="572" y="87" width="25.5" height="10" rx="3" fill="#4c71f2"/><text x="776" y="96" fill="#434d58" font-size="12" font-weight="400" text-anchor="end">9%</text><text x="412" y="118" fill="#434d58" font-size="12" font-weight="400" text-anchor="start">frontend-design</text><rect x="572" y="109" width="25.5" height="10" rx="3" fill="#4c71f2"/><text x="776" y="118" fill="#434d58" font-size="12" font-weight="400" text-anchor="end">9%</text><text x="412" y="140" fill="#434d58" font-size="12" font-weight="400" text-anchor="start">systematic-debugging</text><rect x="572" y="131" width="19.1" height="10" rx="3" fill="#4c71f2"/><text x="776" y="140" fill="#434d58" font-size="12" font-weight="400" text-anchor="end">7%</text><text x="412" y="162" fill="#434d58" font-size="12" font-weight="400" text-anchor="start">vuln-report-triage</text><rect x="572" y="153" width="19.1" height="10" rx="3" fill="#4c71f2"/><text x="776" y="162" fill="#434d58" font-size="12" font-weight="400" text-anchor="end">7%</text><text x="412" y="184" fill="#434d58" font-size="12" font-weight="400" text-anchor="start">writing-plans</text><rect x="572" y="175" width="19.1" height="10" rx="3" fill="#4c71f2"/><text x="776" y="184" fill="#434d58" font-size="12" font-weight="400" text-anchor="end">7%</text><text x="412" y="206" fill="#434d58" font-size="12" font-weight="400" text-anchor="start">ponytail-review</text><rect x="572" y="197" width="16.0" height="10" rx="3" fill="#4c71f2"/><text x="776" y="206" fill="#434d58" font-size="12" font-weight="400" text-anchor="end">6%</text><text x="412" y="228" fill="#434d58" font-size="12" font-weight="400" text-anchor="start">other</text><rect x="572" y="219" width="150.0" height="10" rx="3" fill="#4c71f2"/><text x="776" y="228" fill="#434d58" font-size="12" font-weight="400" text-anchor="end">55%</text><text x="24" y="262" fill="#2f80ed" font-size="14" font-weight="600" text-anchor="start">Plugins</text><text x="24" y="286" fill="#434d58" font-size="12" font-weight="400" text-anchor="start">superpowers</text><rect x="184" y="277" width="150.0" height="10" rx="3" fill="#4c71f2"/><text x="388" y="286" fill="#434d58" font-size="12" font-weight="400" text-anchor="end">51%</text><text x="24" y="308" fill="#434d58" font-size="12" font-weight="400" text-anchor="start">frontend-design</text><rect x="184" y="299" width="32.4" height="10" rx="3" fill="#4c71f2"/><text x="388" y="308" fill="#434d58" font-size="12" font-weight="400" text-anchor="end">11%</text><text x="24" y="330" fill="#434d58" font-size="12" font-weight="400" text-anchor="start">caveman</text><rect x="184" y="321" width="28.4" height="10" rx="3" fill="#4c71f2"/><text x="388" y="330" fill="#434d58" font-size="12" font-weight="400" text-anchor="end">10%</text><text x="24" y="352" fill="#434d58" font-size="12" font-weight="400" text-anchor="start">ponytail</text><rect x="184" y="343" width="28.4" height="10" rx="3" fill="#4c71f2"/><text x="388" y="352" fill="#434d58" font-size="12" font-weight="400" text-anchor="end">10%</text><text x="24" y="374" fill="#434d58" font-size="12" font-weight="400" text-anchor="start">playwright</text><rect x="184" y="365" width="20.3" height="10" rx="3" fill="#4c71f2"/><text x="388" y="374" fill="#434d58" font-size="12" font-weight="400" text-anchor="end">7%</text><text x="24" y="396" fill="#434d58" font-size="12" font-weight="400" text-anchor="start">code-review</text><rect x="184" y="387" width="16.2" height="10" rx="3" fill="#4c71f2"/><text x="388" y="396" fill="#434d58" font-size="12" font-weight="400" text-anchor="end">6%</text><text x="24" y="418" fill="#434d58" font-size="12" font-weight="400" text-anchor="start">other</text><rect x="184" y="409" width="16.2" height="10" rx="3" fill="#4c71f2"/><text x="388" y="418" fill="#434d58" font-size="12" font-weight="400" text-anchor="end">6%</text><text x="412" y="262" fill="#2f80ed" font-size="14" font-weight="600" text-anchor="start">Tool mix</text><text x="412" y="286" fill="#434d58" font-size="12" font-weight="400" text-anchor="start">Bash</text><rect x="572" y="277" width="150.0" height="10" rx="3" fill="#4c71f2"/><text x="776" y="286" fill="#434d58" font-size="12" font-weight="400" text-anchor="end">57%</text><text x="412" y="308" fill="#434d58" font-size="12" font-weight="400" text-anchor="start">Read</text><rect x="572" y="299" width="46.7" height="10" rx="3" fill="#4c71f2"/><text x="776" y="308" fill="#434d58" font-size="12" font-weight="400" text-anchor="end">18%</text><text x="412" y="330" fill="#434d58" font-size="12" font-weight="400" text-anchor="start">Edit</text><rect x="572" y="321" width="35.1" height="10" rx="3" fill="#4c71f2"/><text x="776" y="330" fill="#434d58" font-size="12" font-weight="400" text-anchor="end">13%</text><text x="412" y="352" fill="#434d58" font-size="12" font-weight="400" text-anchor="start">Write</text><rect x="572" y="343" width="9.6" height="10" rx="3" fill="#4c71f2"/><text x="776" y="352" fill="#434d58" font-size="12" font-weight="400" text-anchor="end">4%</text><text x="412" y="374" fill="#434d58" font-size="12" font-weight="400" text-anchor="start">ToolSearch</text><rect x="572" y="365" width="5.1" height="10" rx="3" fill="#4c71f2"/><text x="776" y="374" fill="#434d58" font-size="12" font-weight="400" text-anchor="end">2%</text><text x="412" y="396" fill="#434d58" font-size="12" font-weight="400" text-anchor="start">Agent</text><rect x="572" y="387" width="3.4" height="10" rx="3" fill="#4c71f2"/><text x="776" y="396" fill="#434d58" font-size="12" font-weight="400" text-anchor="end">1%</text><text x="412" y="418" fill="#434d58" font-size="12" font-weight="400" text-anchor="start">other</text><rect x="572" y="409" width="12.8" height="10" rx="3" fill="#4c71f2"/><text x="776" y="418" fill="#434d58" font-size="12" font-weight="400" text-anchor="end">5%</text></svg>
